<?xml version="1.0" encoding="UTF-8"?>
<svg id="Layer_1" xmlns="http://www.w3.org/2000/svg" version="1.1" viewBox="0 0 200 100">
  <!-- Generator: Adobe Illustrator 30.1.0, SVG Export Plug-In . SVG Version: 2.1.1 Build 136)  -->
  <defs>
    <style>
      .st0 {
        fill: #973131;
      }

      .st1 {
        fill: #dca47c;
      }

      .st2 {
        fill: #917e69;
      }
    </style>
  </defs>
  <g>
    <path class="st1" d="M144.3,55.13c.84.5,1.22,1.26,1.14,2.21-.08.96-.76,1.43-1.59,1.72-.26.09-.52.17-.8.26.02.54.25.94.64,1.25s.78.44,1.3.18c1.45-.72,2.93-1.38,4.39-2.06.28-.13.55-.25.87-.39.29.63.56,1.22.85,1.83-.28.14-.5.24-.73.35-1.45.68-2.91,1.35-4.36,2.03-.56.26-.68.8-.22,1.22.31.28.71.51,1.1.64,1.57.5,3,.25,4.17-.96.77-.8,1.72-1.04,2.77-1.05h.46c1.87-.14,3.72-.03,5.56.33,2.75.55,5.35,1.54,7.93,2.62.34.14.55.34.71.67,1.04,2.23,1.64,4.57,1.78,7.03.14,2.32-.22,4.55-1.14,6.68-.07.16-.29.33-.47.35-3.3.56-6.6.58-9.89-.01-6.35-1.14-11.8-4.03-16.18-8.75-6.46-6.96-8.96-15.23-7.58-24.59.99-6.68,4.07-12.36,9.08-16.89,7.13-6.45,15.55-8.97,24.99-7.2,10.45,1.96,17.73,8.09,21.89,17.89.28.66.51,1.34.8,2.1-3.2-.5-6.1-1.69-9.08-2.65.1.23.22.42.34.62,2.11,3.35,2.98,6.98,2.36,10.91-.55,3.49-2.13,6.5-4.71,8.91-3.26,3.05-7.11,4.51-11.6,3.85-3.22-.47-5.7-2.17-7.35-4.99-1.13-1.93-1.1-3.95-.36-6.06.3.21.57.39.84.59,2.65,1.95,5.58,2.35,8.69,1.45,3.02-.88,4.62-3.13,4.49-6.09-.08-1.75-1.07-2.76-2.82-2.84-.65-.03-1.29-.06-1.94-.06-1.5,0-2.86-.4-4.02-1.38-1.29-1.09-2.2-2.45-2.76-4.03-.27-.76-.44-1.57-.66-2.4-4.38,1.05-8.33,2.97-11.75,5.92-3.37,2.91-5.77,6.5-7.33,10.68.1.08.14.11.18.13v-.02ZM168.27,73.4c-.09-2.03-.54-3.99-1.3-5.88-.12-.3-.3-.49-.62-.62-2.27-.93-4.56-1.78-6.98-2.25-1.71-.33-3.42-.34-5.15-.28-.84.03-1.49.27-2.11.82-1.89,1.68-4.06,1.81-6.32.93-1.47-.57-2.37-1.64-2.31-3.31-.3-.17-.6-.3-.85-.49-1.45-1.06-1.86-2.51-1.5-4.21.96-4.53,2.92-8.59,5.88-12.15,4.14-4.96,9.45-8.01,15.69-9.51.43-.11.72-.25.87-.72.25-.74.82-1.21,1.56-1.46,4.55-1.55,8.89-1.13,13,1.39.05.03.11.06.15.1,1.15,1.04,2.64,1.34,4.04,1.82,1.88.65,3.75,1.31,5.63,1.96.11.04.23.06.36.1-3.91-9.19-15.54-17.63-29.4-15.08-14.65,2.69-24.35,16.69-21.85,31.27,2.57,15.03,16.68,24.38,30.5,22.32.57-1.54.77-3.12.7-4.74h.01ZM164.47,59.55c1.98,2.15,4.48,3,7.34,2.76,6.22-.53,10.74-5.65,11.56-11.09.74-4.91-.85-9.06-4.45-12.42-2.19-2.04-4.81-3.17-7.82-3.38-1.7-.12-3.35.11-4.96.65-.7.23-.9.43-.86,1.16.05.82.16,1.66.37,2.45.34,1.29,1.05,2.39,2,3.33.84.82,1.86,1.16,3.02,1.18.88.02,1.76.02,2.63.12,2.24.25,3.82,1.86,4.09,4.11.48,4.05-1.7,7.39-5.69,8.67-2.74.88-5.46.78-8.15-.26-.14-.06-.29-.11-.43-.17-.03,0-.06,0-.16,0,.21,1.15.76,2.08,1.51,2.89h0Z"/>
    <path d="M159.79,46.76c1.42-.05,2.32-.58,2.89-1.63.33-.61.12-1.24-.47-1.57-1.43-.79-3.23-.33-4.1,1.04-.5.78-.28,1.53.58,1.87.42.16.88.24,1.11.3h0Z"/>
    <path class="st0" d="M139.3,57.08c.44-1.32.81-2.61,1.28-3.86,1.63-4.29,4.11-8.03,7.47-11.16,3.68-3.42,7.99-5.74,12.81-7.13.25-.07.52-.12.75-.23.18-.08.38-.21.48-.37.54-.82,1.24-1.46,2.17-1.79,5.65-2.02,10.94-1.3,15.85,2.15.13.09.25.18.38.26.08.05.17.06.26.09,1.05.35,2.1.7,3.16,1.05-.47-1.41-4.96-5.33-7.76-6.88-3.12-1.72-6.45-2.78-9.99-3.11-3.53-.32-6.99.05-10.35,1.2-13.11,4.46-19.48,17.98-16.52,29.77h.01Z"/>
    <path class="st0" d="M144.86,67.94c.43.45.85.92,1.29,1.35,2.51,2.43,5.38,4.31,8.65,5.57,3.51,1.35,7.14,1.85,10.89,1.59.33-.02.45-.15.5-.46.39-2.19.09-4.32-.51-6.44-.2-.72-.57-1.12-1.28-1.38-2.03-.74-4.05-1.52-6.21-1.75-1.39-.15-2.8-.09-4.2-.09-.21,0-.45.18-.63.33-1.09.9-2.29,1.58-3.7,1.8-1.48.23-2.92.05-4.32-.44-.14-.05-.28-.1-.42-.15-.02.03-.04.05-.06.08h0Z"/>
    <path class="st2" d="M181.5,44.25c-.12-.31-.21-.56-.32-.79-1.93-3.93-4.97-6.41-9.35-7.06-1.67-.25-3.33-.05-4.95.46-.29.09-.4.24-.39.54.09,1.94.79,3.58,2.23,4.91.68.63,1.53.63,2.37.72,3.2.36,6.4.72,9.6,1.08.24.03.48.08.81.14h0Z"/>
    <path class="st2" d="M178.17,47.97c.09,1.18.02,2.28-.27,3.36-.03.1,0,.24.06.33.78,1.13,1.58,2.24,2.4,3.41.07-.1.17-.2.24-.32.72-1.22,1.25-2.51,1.49-3.91.02-.14-.04-.37-.15-.44-1.17-.8-2.36-1.57-3.54-2.35-.04-.03-.1-.04-.23-.08h0Z"/>
    <path class="st2" d="M175.93,59.15c1.19-.46,3.19-2.17,3.9-3.35-.73-1.09-1.48-2.21-2.29-3.43-.61,1.29-1.4,2.29-2.43,3.11.28,1.23.55,2.45.82,3.67h0Z"/>
    <path class="st2" d="M176.37,44.65c.77.68,1.29,1.52,1.64,2.47.04.12.16.22.27.29,1.36.87,2.73,1.74,4.09,2.6.05.03.11.05.23.1.15-1.57-.04-3.06-.49-4.64-1.87-.33-3.78-.66-5.68-.99-.02.06-.05.11-.07.17h.01Z"/>
    <path class="st2" d="M170.08,61.39c1.79.18,3.45-.16,5.14-.86-.26-1.23-.52-2.42-.79-3.67-.17.07-.28.11-.38.16-1,.59-2.08.99-3.21,1.26-.15.04-.38.17-.4.29-.14.91-.25,1.82-.37,2.82h0Z"/>
    <path class="st2" d="M169.24,61.2c.12-.87.24-1.74.38-2.68-1.71.13-3.35.08-4.98-.36.45,1.27,3.03,2.97,4.6,3.04h0Z"/>
  </g>
  <g>
    <path class="st0" d="M12.52,56.57c0-1.77.38-3.43,1.15-4.99.77-1.56,1.85-2.86,3.24-3.92l4.39,4.17c-.97.48-1.73,1.12-2.27,1.89-.55.78-.82,1.73-.82,2.84,0,.57.09,1.12.27,1.64.18.53.44,1,.77,1.42s.73.79,1.18,1.12c.45.33.94.56,1.47.71.23.06.56.11.99.13s.86.04,1.28.06h2.31c.51,0,.99-.08,1.45-.24.46-.16.9-.37,1.31-.65.41-.27.77-.61,1.07-1s.55-.81.74-1.25l.41-.92h-1.52v-6c.13.63.52.95,1.17.95h8.4v5.05h-2.21l-.54,1.96c-.36,1.37-1.01,2.63-1.96,3.79-2.21,2.7-5.05,4.04-8.53,4.04-.38,0-.84,0-1.39-.02-.55-.01-1.1-.03-1.66-.06s-1.1-.07-1.61-.13c-.52-.05-.94-.12-1.28-.21-1.14-.32-2.19-.81-3.14-1.48-.96-.67-1.78-1.47-2.48-2.39-.69-.92-1.24-1.93-1.63-3.05s-.58-2.29-.58-3.51l.02.05ZM21.65,69.33c.69,0,1.27.24,1.74.71.46.47.69,1.06.69,1.75s-.23,1.31-.69,1.79c-.46.47-1.04.71-1.74.71s-1.25-.24-1.72-.73c-.47-.48-.71-1.07-.71-1.77s.24-1.25.71-1.74c.47-.48,1.05-.73,1.72-.73h0ZM26.39,71.8c0-.34.06-.66.19-.96.12-.31.3-.57.52-.79.22-.22.48-.39.77-.52s.61-.19.95-.19c.7,0,1.28.24,1.75.71s.71,1.06.71,1.75-.24,1.31-.71,1.79c-.47.47-1.06.71-1.75.71s-1.25-.24-1.72-.73c-.47-.48-.71-1.07-.71-1.77Z"/>
    <path class="st0" d="M40.1,52.56c.51,0,.98-.1,1.42-.3s.83-.47,1.15-.81c.33-.34.58-.73.76-1.18.18-.45.27-.93.27-1.44v-7.23c0-.55-.32-.93-.95-1.14h5.91v8.37c0,.95.28,1.75.84,2.42.56.66,1.26,1.08,2.1,1.25l.06,5.09c-.88-.11-1.77-.37-2.67-.79-.89-.42-1.66-.94-2.29-1.55l-.44-.47-.44.47c-1.54,1.58-3.39,2.37-5.56,2.37h-1.04v-5.05h.88ZM42.12,32.44c.67,0,1.25.24,1.72.73.47.48.71,1.07.71,1.77s-.24,1.28-.71,1.75c-.47.47-1.05.71-1.72.71s-1.27-.24-1.74-.71c-.46-.47-.7-1.06-.7-1.75s.23-1.28.7-1.77c.46-.48,1.04-.73,1.74-.73ZM46.23,34.94c0-.7.23-1.28.7-1.77.46-.48,1.04-.73,1.74-.73s1.27.24,1.74.73c.46.48.69,1.07.69,1.77s-.23,1.28-.69,1.75-1.04.71-1.74.71-1.27-.24-1.74-.71c-.46-.47-.7-1.06-.7-1.75Z"/>
    <path class="st0" d="M51.34,52.56h1.83c.51,0,.98-.1,1.42-.3s.83-.47,1.15-.81c.33-.34.58-.73.76-1.18.18-.45.27-.93.27-1.44v-7.23c0-.59-.31-.97-.92-1.14h5.88v8.37c0,.95.28,1.75.84,2.42s1.27,1.08,2.13,1.25l.06,5.09c-.91-.11-1.81-.37-2.7-.81-.9-.43-1.67-.95-2.32-1.56l-.47-.44-.41.47c-.74.74-1.58,1.32-2.53,1.74-.95.42-1.95.63-3,.63h-1.99v-5.05h0ZM52.01,63.93c0-.69.23-1.28.69-1.75s1.04-.71,1.74-.71,1.27.24,1.74.71.7,1.06.7,1.75-.23,1.31-.7,1.79-1.04.71-1.74.71-1.27-.24-1.74-.71-.69-1.07-.69-1.79ZM58.54,63.93c0-.69.23-1.28.7-1.75.46-.47,1.04-.71,1.74-.71s1.27.24,1.74.71c.46.47.7,1.06.7,1.75s-.23,1.31-.7,1.79c-.46.47-1.04.71-1.74.71s-1.27-.24-1.74-.71c-.46-.47-.7-1.07-.7-1.79Z"/>
    <path class="st0" d="M64.45,52.56h12.79c.46,0,.9-.09,1.33-.27.42-.18.79-.42,1.11-.73.32-.3.56-.67.74-1.09.18-.42.27-.87.27-1.36s-.09-.94-.27-1.37-.42-.81-.73-1.12c-.3-.32-.67-.57-1.09-.76s-.87-.28-1.36-.28h-8.4v-5.94c.17.59.52.88,1.04.88h7.36c.74,0,1.46.1,2.16.3.71.2,1.38.48,2.04.84.61.38,1.17.83,1.69,1.36.52.53.96,1.1,1.33,1.72.37.62.66,1.28.87,1.97.21.69.32,1.4.32,2.12,0,.95.27,1.75.82,2.42.55.66,1.25,1.08,2.12,1.25l.06,5.09c-.88-.11-1.75-.36-2.59-.76-.84-.4-1.6-.89-2.27-1.48l-.41-.41-.44.41c-1.62,1.52-3.52,2.27-5.69,2.27h-12.73l-.06-5.05h-.01Z"/>
    <path class="st0" d="M88.33,57.62v-5.09h3.13l.09-10.87c0-.59-.3-.97-.88-1.14h5.81v2.81l14.62-2.81h.16c.17,0,.27,0,.32.03,1.12.06,2.15.34,3.1.82s1.77,1.12,2.48,1.91,1.26,1.69,1.66,2.69.6,2.05.6,3.14c0,1.16-.22,2.25-.66,3.29-.44,1.03-1.05,1.93-1.82,2.7s-1.66,1.38-2.69,1.83-2.1.68-3.24.68h-22.68ZM110.95,52.53c.48,0,.94-.09,1.36-.27s.79-.43,1.11-.74c.32-.32.56-.69.74-1.12s.27-.89.27-1.37-.09-.93-.28-1.34-.44-.78-.76-1.12c-.13-.13-.28-.25-.47-.38s-.4-.25-.63-.36c-.23-.12-.47-.2-.73-.25-.25-.05-.5-.06-.73-.02-.11.02-.39.08-.85.17-.46.09-1.03.21-1.69.33-.66.13-1.41.27-2.23.43s-1.65.32-2.5.49c-.84.17-1.65.32-2.43.46s-1.47.27-2.08.39c-.3.06-.57.12-.84.16-.26.04-.48.08-.65.13l-1.07.22v4.2h14.47,0ZM104.98,32.12c.67,0,1.25.24,1.72.71.47.47.71,1.07.71,1.78s-.24,1.28-.71,1.75-1.05.71-1.72.71-1.28-.24-1.75-.71c-.47-.47-.71-1.06-.71-1.75s.24-1.31.71-1.78c.47-.47,1.06-.71,1.75-.71Z"/>
    <path class="st0" d="M128.77,30.51c.32,0,.5-.12.57-.35v2.5h-7.14c-.32,0-.51.12-.57.35v-2.5h1.74l-.28-.88c-.13-.38-.19-.77-.19-1.17,0-.72.17-1.38.52-1.99s.83-1.09,1.44-1.45c.34-.19.71-.35,1.12-.49s.93-.21,1.56-.21c.4,0,.67-.1.82-.32v2.37h-.73c-.72,0-1.24.2-1.56.6-.33.4-.49.9-.49,1.48s.21,1.05.62,1.45c.41.4.89.6,1.44.6h1.14-.01ZM122.54,35.13h5.88c-.61.34-.92.73-.92,1.17v21.32h-4.96s0-22.49,0-22.49Z"/>
  </g>
  <g>
    <path class="st2" d="M42.72,77.16c-.95,0-1.75-.33-2.42-1s-1-1.48-1-2.42.33-1.75,1-2.42,1.48-1,2.42-1,1.75.33,2.42,1,1,1.48,1,2.42-.33,1.75-1,2.42-1.48,1-2.42,1ZM42.72,76.67c.81,0,1.5-.29,2.08-.86s.86-1.26.86-2.08-.29-1.5-.86-2.08-1.26-.86-2.08-.86-1.5.29-2.08.86-.86,1.26-.86,2.08.29,1.5.86,2.08,1.26.86,2.08.86Z"/>
    <path class="st2" d="M58.25,74.71c0,.67-.24,1.25-.72,1.73s-1.05.72-1.73.72-1.25-.24-1.73-.72-.72-1.05-.72-1.73.24-1.25.72-1.73,1.05-.72,1.73-.72,1.25.24,1.73.71c.08.08.16.17.22.26v-2.44l.49-.49v4.4h0ZM55.81,76.67c.54,0,1-.19,1.38-.57s.57-.84.57-1.38-.19-1-.57-1.38-.84-.57-1.38-.57-1,.19-1.38.57-.57.84-.57,1.38.19,1,.57,1.38.84.57,1.38.57Z"/>
    <path class="st2" d="M66,70.31l.49.49v2.44c.07-.09.15-.17.23-.26.48-.48,1.05-.71,1.73-.71s1.25.24,1.73.72.72,1.05.72,1.73v2.45h-.49v-2.45c0-.54-.19-1-.57-1.38s-.84-.57-1.38-.57-1,.19-1.38.57-.57.84-.57,1.38v2.45h-.49v-6.85h-.02Z"/>
    <path class="st2" d="M78.71,74.96c.05.44.24.82.56,1.14.38.38.84.57,1.38.57s1-.19,1.38-.57c.2-.2.34-.41.44-.65h.52c-.11.37-.31.7-.61.99-.48.48-1.06.72-1.73.72s-1.25-.24-1.73-.72-.72-1.05-.72-1.73.24-1.25.72-1.73,1.05-.72,1.73-.72,1.25.24,1.73.72.72,1.05.72,1.73v.24h-4.39ZM82.59,74.47c-.05-.44-.23-.82-.56-1.14-.38-.38-.84-.57-1.38-.57s-1,.19-1.38.57c-.32.32-.51.7-.56,1.14,0,0,3.88,0,3.88,0Z"/>
    <path class="st2" d="M95.29,76.67c0,.67-.24,1.25-.72,1.73s-1.05.72-1.73.72-1.25-.24-1.73-.72l.34-.34c.38.38.84.57,1.38.57s1-.19,1.38-.57.57-.84.57-1.38v-.48c-.07.09-.14.17-.22.25-.48.48-1.06.72-1.73.72s-1.25-.24-1.73-.72-.72-1.05-.72-1.73v-2.45h.49v2.45c0,.54.19,1,.57,1.38s.84.57,1.38.57,1-.19,1.38-.57.57-.84.57-1.38v-1.96l.49-.49v4.4h.03Z"/>
    <path class="st2" d="M107.03,76.19c-.07.09-.14.17-.22.25-.48.48-1.06.72-1.73.72s-1.25-.24-1.73-.72-.72-1.05-.72-1.73.24-1.25.72-1.73,1.05-.72,1.73-.72,1.25.24,1.73.72.72,1.05.72,1.73v2.45l-.49-.49v-.48h-.01ZM105.08,76.67c.54,0,1-.19,1.38-.57s.57-.84.57-1.38-.19-1-.57-1.38-.84-.57-1.38-.57-1,.19-1.38.57-.57.84-.57,1.38.19,1,.57,1.38.84.57,1.38.57Z"/>
    <path class="st2" d="M117.31,76.67h.49l.49.49h-.98c-.67,0-1.25-.24-1.73-.72s-.72-1.05-.72-1.73v-4.4h.49v1.96h2.45v.49h-2.45v1.96c0,.54.19,1,.57,1.38s.84.57,1.38.57h.01Z"/>
    <path class="st2" d="M125.25,70.8v-.49h.49v.49h-.49ZM125.74,72.27v4.89h-.49v-4.89h.49Z"/>
  </g>
  <rect class="st0" x="-344.67" y="-124.67" width="96" height="125.67"/>
  <rect class="st1" x="-340.33" y="21" width="96" height="125.67"/>
  <rect class="st2" x="-144.33" y="-41" width="96" height="125.67"/>
</svg>